/* XPM */
static char *eldritch_icon[] = {
/* XPM Header: width height colors chars_per_pixel */
"48 48 8 1",
/* Colors */
"  c #000000", /* 0: Black (The Void) */
". c #181C30", /* 1: Very Dark Indigo (Deep Space) */
"# c #335577", /* 2: Muted Blue-Grey (Cyclopean Stone) */
"% c #113322", /* 3: Dark Sickly Green (Tentacles/Slime) */
"+ c #558866", /* 4: Lighter Sickly Green (Highlight) */
"* c #880000", /* 5: Dark Crimson (Madness/Pupil) */
"= c #FFD700", /* 6: Eerie Gold (Cosmic Energy/Eye Glow) */
"o c #EEEEEE", /* 7: Faint Light (Glint/Reflections) */
/* Pixels */
"................................................",
".##############################################.",
".#%%%%%%%................................%%%%%.#",
".#%%%%%%%%.##########################.%%%%%%%%#.",
".#%%%%%%%%%%.######################.%%%%%%%%%%#.",
".#%%%%%%%%%%%%.##################.%%%%%%%%%%%%#.",
".#%%%%%%%%%%%%%%.################.%%%%%%%%%%%%#.",
".#%%%%%%%%%%%%%%%%.############.%%%%%%%%%%%%%%#.",
".#%%%%%%%%%%%%%%%%%%.##########.%%%%%%%%%%%%%%#.",
".#%%%%%%%%%%%%%%%%%%%.########.%%%%%%%%%%%%%%%#.",
".#%%%%%%%%%%%%%%%%%%%%.######.%%%%%%%%%%%%%%%%#.",
".#%%%%%%%%%%%%%%%%%%%%%%.##.%%%%%%%%%%%%%%%%%%#.",
".#%%%%%%%%%%%%%%%%%%%%%%%%.%%%%%%%%%%%%%%%%%%%#.",
".#%%%%%%%%%%%%%%%%%%%%%%%..%%%%%%%%%%%%%%%%%%%#.",
".#%%%%%%%%%%%%%%%%%%%%%....%%%%%%%%%%%%%%%%%%%#.",
".#%%%%%%%%%%%%%%%%%%%%.....%%%%%%%%%%%%%%%%%%%#.",
".#%%%%%%%%%%%%%%%%%%......%%%%%%%%%%%%%%%%%%%%#.",
".#%%%%%%%%%%%%%%%%%%......%%%%%%%%%%%%%%%%%%%%#.",
".#%%%%%%%%%%%%%%%%%%......%%%%%%%%%%%%%%%%%%%%#.",
".#%%%%%%%%%%%%%%%%%%.....#%%%%%%%%%%%%%%%%%%%%#.",
".#%%%%%%%%%%%%%%%%%%....###%%%%%%%%%%%%%%%%%%%#.",
".#%%%%%%%%%%%%%%%%%%..#####..%%%%%%%%%%%%%%%%%#.",
".#%%%%%%%%%%%%%%%%%.#######..%%%%%%%%%%%%%%%%%#.",
".#%%%%%%%%%%%%%%%%.#########.%%%%%%%%%%%%%%%%%#.",
".#%%%%%%%%%%%%%%%%.#########.%%%%%%%%%%%%%%%%%#.",
".#%%%%%%%%%%%%%%%%..#######..%%%%%%%%%%%%%%%%%#.",
".#%%%%%%%%%%%%%%%%%.#####...%%%%%%%%%%%%%%%%%%#.",
".#%%%%%%%%%%%%%%%%%%%....%%%%%%%%%%%%%%%%%%%%%#.",
".#%%%%%%%%%%%%%%%%%%%%.....%%%%%%%%%%%%%%%%%%%#.",
".#%%%%%%%%%%%%%%%%%%%%%%...%%%%%%%%%%%%%%%%%%%#.",
".#%%%%%%%%%%%%%%%%%%%%.%%.%%%%%%%%%%%%%%%%%%%%#.",
".#%%%%%%%%%%%%%%%%.%%.%%%%.%%%%%%%%%%%%%%%%%%%#.",
".#%%%%%%%%%%%%%%%.%%.%%%%%%.%%%%%%%%%%%%%%%%%%#.",
".#%%%%%%%%%%%%%%.%%%%%%%%%%.%%%%%%%%%%%%%%%%%%#.",
".#%%%%%%%%%%%%%.%%%%%%%%%%%%.%%%%%%%%%%%%%%%%%#.",
".#%%%%%%%%%%%%.%%%%%%%%%%%%%%.%%%%%%%%%%%%%%%%#.",
".#%%%%%%%%%%%.%%%%%%%%%%%%%%%%.%%%%%%%%%%%%%%%#.",
".#%%%%%%%%%%.%%%%%%%%%%%%%%%%%%.%%%%%%%%%%%%%%#.",
".#%%%%%%%%.%%%%%%%%%%%%%%%%%%%%%.%%%%%%%%%%%%%#.",
".#%%%%%%.%%%%%%%%%%%%%%%%%%%%%%%%.%%%%%%%%%%%%#.",
".#%%%%.%%%%%%%%%%%%%%%%%%%%%%%%%%.%%%%%%%%%%%%#.",
".#%%%%.%%%%%%%%%%%%%%%%%%%%%%%%%%.%%%%%%%%%%%%#.",
".#%%%%.%%%%%%o==**==o%%%%%%%%%%%%.%%%%%%%%%%%%#.",
".#%%%%.%%%%==*#***#*==%%%%%%%%%%%%.%%%%%%%%%%%#.",
".#%%%%.%%%=*#%%%%%#*==%%%%%%%%%%%%%.%%%%%%%%%%#.",
".#%%%%.%%%==***o***==%%%%%%%%%%%%%%.%%%%%%%%%%#.",
".##############################################.",
"................................................"
};
